<svg xmlns="http://www.w3.org/2000/svg" width="32" height="32" viewBox="0 0 32 32" fill="none">
  <circle cx="16" cy="16" r="16" fill="#22d3ee"/>
  <path d="M16 8c-1.1 0-2 .9-2 2v1c-2.8.5-5 2.9-5 5.8 0 3.3 2.7 6 6 6h2c3.3 0 6-2.7 6-6 0-2.9-2.2-5.3-5-5.8V10c0-1.1-.9-2-2-2z" fill="#0f172a"/>
  <circle cx="12" cy="17" r="2" fill="#0f172a"/>
  <circle cx="20" cy="17" r="2" fill="#0f172a"/>
  <path d="M16 8v-2m0 0c0-1.1.9-2 2-2h1m-3 4c0-1.1-.9-2-2-2h-1" stroke="#0f172a" stroke-width="1.5" stroke-linecap="round"/>
</svg>
